<svg width="369" height="447" viewBox="0 0 369 447" fill="none" xmlns="http://www.w3.org/2000/svg">
    <g clip-path="url(#clip0_214_3787)">
        <path fill-rule="evenodd" clip-rule="evenodd"
              d="M92.62 137.93C92.66 136.26 92.7 134.58 92.76 132.9V132.76L92.78 132.09V132.06V131.93V131.79L92.8 131.37V131.23V131.1L92.82 130.68V130.54L92.84 130.26V130.12L92.85 129.98V129.84C93.49 114.62 95 99.36 97.67 84.4C100.26 69.89 104.04 54.91 109.89 41.35C112.32 35.71 116.18 29.33 119.7 24.34C123.85 18.45 130.84 9.79999 138.73 9.76999C141.48 9.75999 144.07 10.57 146.2 12.33C153.12 18.04 151.83 30.96 150.38 38.88C147.25 56.03 145.03 73.45 144.04 90.86C143.18 105.98 143.19 121.48 144.93 136.54C146.7 151.95 151.99 180.02 168.46 186.8C174.01 189.09 180.82 188.09 186.43 186.54C191.04 185.28 195.71 183.45 200.12 181.61C205.89 179.21 211.58 176.55 217.13 173.68C228.82 167.65 245.38 155.65 258.88 162.75C266.98 167 266.35 176 263.41 183.42C261.17 189.09 257.04 194.5 253.13 199.13C248.58 204.53 243.63 209.62 238.81 214.78C236.24 217.53 233.69 220.3 231.23 223.15C226.1 229.09 219.93 237.9 222.79 246.2C224.26 250.48 227.8 254.1 231.2 256.94C233.84 259.14 237.13 261.17 240.02 263.04C244.29 265.8 248.56 268.52 252.73 271.42C261.1 277.25 275.21 287.59 274.47 299.13C274.34 301.13 273.78 303.03 272.84 304.8C269.18 311.65 261.64 313.84 254.4 314.25C245.88 314.73 236.9 313.04 228.52 311.6C220.31 310.19 209.7 308.22 201.48 309.97C199.99 310.29 198.39 310.83 197.24 311.87C193.88 314.91 194.38 322.88 194.76 326.86C195.49 334.61 195.98 343.9 194.36 351.55C193.23 356.9 190.73 362.42 185.22 364.4C178.03 366.98 170.34 361.78 165.1 357.33C157.76 351.1 151.04 342.91 145.26 335.23C120.4 302.19 106.17 259.82 98.92 219.43C94.11 192.67 92.02 165.1 92.61 137.93H92.62ZM184.48 446.94C126.35 416.69 78.25 381.86 49.03 337.96C16.56 289.17 0.99 202.39 0 82.9C25.98 76.93 59.94 65.42 92.65 51.46C89.42 61.51 87.04 71.88 85.19 82.19C84.61 85.41 84.09 88.64 83.62 91.87C66.61 98.45 49.86 104.21 34.42 108.81C36.27 175.47 44.34 269.63 77.3 319.17C102.46 356.98 144.2 386.09 184.48 408.43C224.76 386.09 266.49 356.99 291.66 319.17C324.62 269.64 332.69 175.48 334.54 108.81C286.55 94.49 225.82 69.12 184.48 42.04C176.9 47 168.67 51.91 159.99 56.7C160.76 51.48 161.62 46.28 162.57 41.09C164.03 33.1 164.71 23.9 162.4 15.86C170.83 10.53 178.3 5.20999 184.48 -0.0100098C223.44 32.89 314.04 70.27 368.95 82.89C367.96 202.39 352.39 289.16 319.92 337.96C290.7 381.87 242.6 416.69 184.47 446.94H184.48ZM181.44 96.1C198.24 87.04 219.19 93.34 228.23 110.18C237.27 127.02 230.98 148.02 214.18 157.08C197.38 166.14 176.43 159.84 167.39 143C158.35 126.16 164.64 105.17 181.44 96.1Z"
              fill="#715DEC"/>
    </g>
    <defs>
        <clipPath id="clip0_214_3787">
            <rect width="368.95" height="446.95" fill="white"/>
        </clipPath>
    </defs>
</svg>
